<?xml version="1.0" encoding="UTF-8" standalone="no"?>
<!-- Created with Inkscape (http://www.inkscape.org/) -->

<svg
   width="179.22368mm"
   height="179.22369mm"
   viewBox="0 0 179.22368 179.22369"
   version="1.1"
   id="svg5"
   xml:space="preserve"
   inkscape:version="1.2 (dc2aedaf03, 2022-05-15)"
   sodipodi:docname="tim_logo.svg"
   xmlns:inkscape="http://www.inkscape.org/namespaces/inkscape"
   xmlns:sodipodi="http://sodipodi.sourceforge.net/DTD/sodipodi-0.dtd"
   xmlns="http://www.w3.org/2000/svg"
   xmlns:svg="http://www.w3.org/2000/svg"><sodipodi:namedview
     id="namedview7"
     pagecolor="#ffffff"
     bordercolor="#000000"
     borderopacity="0.25"
     inkscape:showpageshadow="2"
     inkscape:pageopacity="0.0"
     inkscape:pagecheckerboard="0"
     inkscape:deskcolor="#d1d1d1"
     inkscape:document-units="mm"
     showgrid="false"
     inkscape:zoom="5.6568542"
     inkscape:cx="-687.92651"
     inkscape:cy="602.2782"
     inkscape:window-width="2560"
     inkscape:window-height="1369"
     inkscape:window-x="1912"
     inkscape:window-y="-8"
     inkscape:window-maximized="1"
     inkscape:current-layer="layer1" /><defs
     id="defs2" /><g
     inkscape:label="Layer 1"
     inkscape:groupmode="layer"
     id="layer1"
     transform="translate(273.4784,-32.045074)"><g
       id="g20806"
       style="fill:#000000;fill-opacity:1"><path
         id="path7582"
         style="fill:#000000;fill-opacity:1;stroke-width:0.15"
         d="m -218.3474,64.690625 c -3.56058,0.484864 -13.68069,7.525758 -17.99166,13.692187 -0.76386,1.092628 -3.03966,3.910336 -3.60237,4.920114 -1.73443,3.112482 -3.40909,8.573636 -3.40909,8.573636 0,0 0.81398,4.405469 0.46302,5.159375 -3.72308,7.997723 -11.28663,24.198563 -10.84792,25.003123 0.22356,0.41 1.64722,0.65246 2.51355,0.66146 3.42758,0.0354 6.98931,-0.12729 9.45885,-0.13229 6.3865,-0.0122 -0.51444,-5.64937 -0.0661,-7.40833 6.60106,1.18798 7.50854,7.20684 2.32544,9.70328 -1.39881,0.67374 -3.70458,0.42587 -6.0296,0.48317 l -0.19844,6.01927 c 7.14511,-0.96741 15.04745,4.15678 15.09675,6.62234 0.021,1.05223 -9.48104,-5.37425 -13.41572,-3.61012 -1.51972,0.68139 -1.30549,4.49573 -0.68884,4.72685 0.77053,0.2888 7.01929,0.0844 6.92619,1.85518 -0.0379,0.72084 -1.23768,0.55198 -3.35432,0.65836 -1.64218,0.0825 -5.25438,6.73251 -2.97656,11.24479 3.00497,5.95274 35.0549,-0.53739 43.19323,-18.38854 -1.76678,9.92369 -12.12327,19.56542 -28.70729,22.9526 5.85887,2.37286 11.73453,17.00999 14.08906,25.66459 l 3.83646,0.0661 c 0,0 -1.53235,-21.32597 3.50573,-29.96406 2.35499,-4.03782 7.24389,-9.14779 11.24479,-13.75833 8.27309,-9.53375 5.67473,-13.83317 -2.12494,-22.0183 -5.87445,-6.16479 -13.976,-16.32816 -12.22871,-28.781703 -2.81286,-0.880503 -11.90064,-2.359157 -13.69218,-5.622396 4.34513,-0.263274 10.28194,2.191012 13.49375,2.182812 V 74.546354 c -5.46368,0.08877 -15.96804,7.104724 -18.3224,6.482292 -0.55586,-0.146956 -0.36489,-1.37199 -0.13229,-1.719792 0.51502,-0.770086 8.65766,-4.103459 13.62604,-5.754687 -2.63191,-2.107749 -2.87113,-4.658544 -1.98438,-8.863542 z m -14.75103,25.610323 c 0.19596,-7.8e-5 0.39392,0.005 0.59376,0.01602 4.41524,0.24368 10.30037,1.870149 16.44086,8.83977 -10.74482,-6.363234 -16.82034,-6.851018 -23.57324,-4.630208 -0.56114,-1.987662 2.554,-4.224 6.53862,-4.225582 z m 0.54777,7.563363 c 4.97295,0.01126 8.38976,2.192089 10.56524,4.694799 1.33318,1.53371 0.80198,1.80859 -0.83612,1.25161 -0.77268,-0.26272 -2.25774,-0.94723 -2.25774,-0.94723 -0.90695,1.43703 -8.01602,5.21871 -8.63315,4.05724 -1.10102,-2.07219 7.08059,-4.24267 8.05592,-4.29547 0,0 -4.11749,-2.751444 -8.63203,-2.54661 -1.34696,0.0611 -1.45377,-1.984604 -0.16537,-2.116671 0.65823,-0.06747 1.29253,-0.09905 1.90325,-0.09767 z"
         sodipodi:nodetypes="csscsscccsccssssssccccsssccccssccssccsssscscsss" /><path
         id="path6800"
         style="fill:#000000;fill-opacity:1;stroke-width:0.15"
         d="m -183.8663,45.088204 c -20.47443,0 -55.09216,8.573091 -56.07513,33.769515 15.37697,-18.148042 21.09453,-17.920428 36.58433,-18.022156 9.88345,-0.06491 15.2134,0.0089 19.4908,0.06201 4.27741,-0.05313 9.60684,-0.126922 19.49029,-0.06201 15.4898,0.101728 21.20736,-0.125886 36.58433,18.022156 -0.98297,-25.196424 -35.60019,-33.769515 -56.07462,-33.769515 z"
         sodipodi:nodetypes="scscscs" /><path
         style="fill:#000000;fill-opacity:1;stroke-width:0.15"
         d="m -183.86655,65.387489 h -30.39675 c -0.91644,2.382516 -0.87325,4.16563 0.42095,5.565889 19.6641,0 22.91275,-0.795129 29.9758,-0.795129"
         id="path20776"
         sodipodi:nodetypes="cccc" /><path
         id="path20778"
         style="fill:#000000;fill-opacity:1;stroke-width:0.15"
         d="m -204.45677,167.15052 c 0.0443,-16.21568 20.58996,-26.92194 20.59022,-37.2401 2.5e-4,10.31816 20.54591,21.02442 20.59021,37.2401 0.0242,8.85983 -9.359,16.00729 -20.59021,16.00729 -11.23122,0 -20.61444,-7.14746 -20.59022,-16.00729 z m 44.55387,0.33073 c 2.91058,-14.08998 -19.53329,-24.64194 -19.84375,-39.02604 -0.18944,-8.77693 19.7011,-19.29 19.7776,-34.858856 0.0638,-12.967283 -11.76708,-21.100521 -23.89725,-21.100521 -12.13016,0 -23.96152,8.133238 -23.89776,21.100521 0.0765,15.568856 19.96704,26.081926 19.7776,34.858856 -0.31046,14.3841 -22.75433,24.93606 -19.84375,39.02604 2.09575,10.14545 7.86516,18.94132 23.96366,18.91771 16.09849,0.0236 21.8679,-8.77226 23.96365,-18.91771 z m -44.35543,-73.752604 c 0.7556,-8.865866 6.73362,-17.991667 20.39203,-17.991667 13.65842,0 19.63592,9.125801 20.39152,17.991667 1.0787,12.656834 -20.39177,26.209954 -20.39177,31.683854 0,-5.46217 -21.47048,-19.02702 -20.39178,-31.683854 z"
         sodipodi:nodetypes="scscssscscsscsssscs" /><path
         style="fill:#000000;fill-opacity:1;stroke-width:0.15"
         d="m -183.86044,192.8151 -29.88982,-0.33073 c -1.13856,-0.0126 -1.56173,-5.61853 -0.23151,-5.58932 l 30.12133,0.66146 z"
         id="path20780"
         sodipodi:nodetypes="csscc" /><path
         style="fill:#000000;fill-opacity:1;stroke-width:0.15"
         d="m -208.34496,183.33554 7.01583,-0.0935 c -2.84878,-2.01737 -5.60837,-4.65125 -6.99297,-8.13836 z"
         id="path20794"
         sodipodi:nodetypes="cccc" /><path
         style="fill:#000000;fill-opacity:1;stroke-width:0.15"
         d="m -199.78731,74.180657 h -8.51253 v 8.746394 c 2.28861,-3.891228 4.82703,-6.419121 8.51253,-8.746394 z"
         id="path20796"
         sodipodi:nodetypes="cccc" /></g><g
       id="g20842"
       transform="matrix(-1,0,0,1,-367.7331,0)"
       style="fill:#000000;fill-opacity:1"><path
         id="path22873"
         style="fill:#000000;fill-opacity:1;stroke:none;stroke-width:0.65;stroke-dasharray:none;stroke-opacity:1"
         d="m -183.8668,32.045072 c 49.49146,1.42e-4 89.612238,40.120897 89.612098,89.612098 -1.4e-4,49.49101 -40.120828,89.61145 -89.612098,89.61159 -49.49127,-1.4e-4 -89.61145,-40.12058 -89.61159,-89.61159 -1.4e-4,-49.491201 40.12013,-89.611956 89.61159,-89.612098 z m 0,6.25905 c -46.03473,5.4e-5 -83.35277,37.318585 -83.35254,83.353048 5e-5,46.03427 37.31801,83.35249 83.35254,83.35254 46.03452,-5e-5 83.353,-37.31827 83.35305,-83.35254 2.3e-4,-46.034463 -37.31833,-83.352994 -83.35305,-83.353048 z" /><path
         id="path20830"
         style="fill:#000000;fill-opacity:1;stroke-width:0.15"
         d="m -218.3474,64.690625 c -3.56058,0.484864 -13.68069,7.525758 -17.99166,13.692187 -0.76386,1.092628 -3.03966,3.910336 -3.60237,4.920114 -1.73443,3.112482 -3.40909,8.573636 -3.40909,8.573636 0,0 0.81398,4.405469 0.46302,5.159375 -3.72308,7.997723 -11.28663,24.198563 -10.84792,25.003123 0.22356,0.41 1.64722,0.65246 2.51355,0.66146 3.42758,0.0354 6.98931,-0.12729 9.45885,-0.13229 6.3865,-0.0122 -0.51444,-5.64937 -0.0661,-7.40833 6.60106,1.18798 7.50854,7.20684 2.32544,9.70328 -1.39881,0.67374 -3.70458,0.42587 -6.0296,0.48317 l -0.19844,6.01927 c 7.14511,-0.96741 15.04745,4.15678 15.09675,6.62234 0.021,1.05223 -9.48104,-5.37425 -13.41572,-3.61012 -1.51972,0.68139 -1.30549,4.49573 -0.68884,4.72685 0.77053,0.2888 7.01929,0.0844 6.92619,1.85518 -0.0379,0.72084 -1.23768,0.55198 -3.35432,0.65836 -1.64218,0.0825 -5.25438,6.73251 -2.97656,11.24479 3.00497,5.95274 35.0549,-0.53739 43.19323,-18.38854 -1.76678,9.92369 -12.12327,19.56542 -28.70729,22.9526 5.85887,2.37286 11.73453,17.00999 14.08906,25.66459 l 3.83646,0.0661 c 0,0 -1.53235,-21.32597 3.50573,-29.96406 2.35499,-4.03782 7.24389,-9.14779 11.24479,-13.75833 8.27309,-9.53375 5.67473,-13.83317 -2.12494,-22.0183 -5.87445,-6.16479 -13.976,-16.32816 -12.22871,-28.781703 -2.81286,-0.880503 -11.90064,-2.359157 -13.69218,-5.622396 4.34513,-0.263274 10.28194,2.191012 13.49375,2.182812 V 74.546354 c -5.46368,0.08877 -15.96804,7.104724 -18.3224,6.482292 -0.55586,-0.146956 -0.36489,-1.37199 -0.13229,-1.719792 0.51502,-0.770086 8.65766,-4.103459 13.62604,-5.754687 -2.63191,-2.107749 -2.87113,-4.658544 -1.98438,-8.863542 z m -14.75103,25.610323 c 0.19596,-7.8e-5 0.39392,0.005 0.59376,0.01602 4.41524,0.24368 10.30037,1.870149 16.44086,8.83977 -10.74482,-6.363234 -16.82034,-6.851018 -23.57324,-4.630208 -0.56114,-1.987662 2.554,-4.224 6.53862,-4.225582 z m 0.54777,7.563363 c 4.97295,0.01126 8.38976,2.192089 10.56524,4.694799 1.33318,1.53371 0.80198,1.80859 -0.83612,1.25161 -0.77268,-0.26272 -2.25774,-0.94723 -2.25774,-0.94723 -0.90695,1.43703 -8.01602,5.21871 -8.63315,4.05724 -1.10102,-2.07219 7.08059,-4.24267 8.05592,-4.29547 0,0 -4.11749,-2.751444 -8.63203,-2.54661 -1.34696,0.0611 -1.45377,-1.984604 -0.16537,-2.116671 0.65823,-0.06747 1.29253,-0.09905 1.90325,-0.09767 z"
         sodipodi:nodetypes="csscsscccsccssssssccccsssccccssccssccsssscscsss" /><path
         style="fill:#000000;fill-opacity:1;stroke-width:0.15"
         d="m -183.86655,65.387489 h -30.39675 c -0.91644,2.382516 -0.87325,4.16563 0.42095,5.565889 19.6641,0 22.91275,-0.795129 29.9758,-0.795129"
         id="path20832"
         sodipodi:nodetypes="cccc" /><path
         style="fill:#000000;fill-opacity:1;stroke-width:0.15"
         d="m -183.86044,192.8151 -29.88982,-0.33073 c -1.13856,-0.0126 -1.56173,-5.61853 -0.23151,-5.58932 l 30.12133,0.66146 z"
         id="path20836"
         sodipodi:nodetypes="csscc" /><path
         style="fill:#000000;fill-opacity:1;stroke-width:0.15"
         d="m -208.34496,183.33554 7.01583,-0.0935 c -2.84878,-2.01737 -5.60837,-4.65125 -6.99297,-8.13836 z"
         id="path20838"
         sodipodi:nodetypes="cccc" /><path
         style="fill:#000000;fill-opacity:1;stroke-width:0.15"
         d="m -199.78731,74.180657 h -8.51253 v 8.746394 c 2.28861,-3.891228 4.82703,-6.419121 8.51253,-8.746394 z"
         id="path20840"
         sodipodi:nodetypes="cccc" /></g><path
       style="fill:#000000;fill-opacity:1;stroke:none;stroke-width:0.649999;stroke-dasharray:none;stroke-opacity:1"
       d="m -183.86655,119.97061 c 3.63166,-6.94347 13.93582,-13.5818 16.46897,-24.181213 -8.54067,1.612925 -11.10453,4.272643 -16.46897,3.227279 -5.68889,-1.153713 -9.96531,-3.437408 -17.06668,-3.461139 1.5911,9.048983 13.10692,17.409963 17.06668,24.415073 z"
       id="path22953"
       sodipodi:nodetypes="ccccc" /><path
       style="fill:#000000;fill-opacity:1;stroke:none;stroke-width:0.649999;stroke-dasharray:none;stroke-opacity:1"
       d="m -183.15981,137.18277 c 0.0299,-0.69135 -2.36119,-0.22385 -2.38538,0.46772 -0.21831,6.24196 -0.55272,15.19017 -0.51449,22.45063 0.0239,4.53296 -11.62275,9.36139 -14.96709,10.24311 1.84329,6.9472 10.50085,10.57018 17.16633,10.28988 6.7178,-0.2825 14.99229,-3.8518 16.36931,-11.78659 -7.43392,-0.81845 -15.15806,-4.78107 -15.2945,-9.30766 -0.15616,-5.18081 -0.6132,-16.82188 -0.37418,-22.35709 z"
       id="path22955"
       sodipodi:nodetypes="ssscscss" /><path
       style="fill:#000000;fill-opacity:1;stroke:none;stroke-width:0.649999;stroke-dasharray:none;stroke-opacity:1"
       d="m -192.23361,152.52403 -2.80633,-0.0468 c -3.68343,2.97297 -6.80615,8.03094 -5.7062,11.9269 l 2.38538,0.60804 c 0.0165,-5.04905 2.11965,-9.18516 6.12715,-12.48814 z"
       id="path23706"
       sodipodi:nodetypes="ccccc" /><path
       style="fill:#000000;fill-opacity:1;stroke:none;stroke-width:0.649999;stroke-dasharray:none;stroke-opacity:1"
       d="m -197.81838,89.89602 c -0.0838,1.758622 -1.41772,1.222168 -2.39991,1.03172 -0.87841,-0.170324 -0.76896,-0.795966 -0.71494,-1.189949 0.42284,-3.083901 3.49623,-8.368886 7.56788,-8.731343 2.21062,-0.196789 1.95545,0.358308 -0.44234,2.011395 -0.80302,0.553618 -3.87169,3.959578 -4.01069,6.878177 z"
       id="path23708"
       sodipodi:nodetypes="ssssss" /><g
       id="g24450"
       style="fill:#000000;fill-opacity:1"><path
         id="path24436"
         style="fill:#000000;fill-opacity:1;stroke-width:0.15"
         d="m -218.3474,64.690625 c -3.56058,0.484864 -13.68069,7.525758 -17.99166,13.692187 -0.76386,1.092628 -3.03966,3.910336 -3.60237,4.920114 -1.73443,3.112482 -3.40909,8.573636 -3.40909,8.573636 0,0 0.81398,4.405469 0.46302,5.159375 -3.72308,7.997723 -11.28663,24.198563 -10.84792,25.003123 0.22356,0.41 1.64722,0.65246 2.51355,0.66146 3.42758,0.0354 6.98931,-0.12729 9.45885,-0.13229 6.3865,-0.0122 -0.51444,-5.64937 -0.0661,-7.40833 6.60106,1.18798 7.50854,7.20684 2.32544,9.70328 -1.39881,0.67374 -3.70458,0.42587 -6.0296,0.48317 l -0.19844,6.01927 c 7.14511,-0.96741 15.04745,4.15678 15.09675,6.62234 0.021,1.05223 -9.48104,-5.37425 -13.41572,-3.61012 -1.51972,0.68139 -1.30549,4.49573 -0.68884,4.72685 0.77053,0.2888 7.01929,0.0844 6.92619,1.85518 -0.0379,0.72084 -1.23768,0.55198 -3.35432,0.65836 -1.64218,0.0825 -5.25438,6.73251 -2.97656,11.24479 3.00497,5.95274 35.0549,-0.53739 43.19323,-18.38854 -1.76678,9.92369 -12.12327,19.56542 -28.70729,22.9526 5.85887,2.37286 11.73453,17.00999 14.08906,25.66459 l 3.83646,0.0661 c 0,0 -1.53235,-21.32597 3.50573,-29.96406 2.35499,-4.03782 7.24389,-9.14779 11.24479,-13.75833 8.27309,-9.53375 5.67473,-13.83317 -2.12494,-22.0183 -5.87445,-6.16479 -13.976,-16.32816 -12.22871,-28.781703 -2.81286,-0.880503 -11.90064,-2.359157 -13.69218,-5.622396 4.34513,-0.263274 10.28194,2.191012 13.49375,2.182812 V 74.546354 c -5.46368,0.08877 -15.96804,7.104724 -18.3224,6.482292 -0.55586,-0.146956 -0.36489,-1.37199 -0.13229,-1.719792 0.51502,-0.770086 8.65766,-4.103459 13.62604,-5.754687 -2.63191,-2.107749 -2.87113,-4.658544 -1.98438,-8.863542 z m -14.75103,25.610323 c 0.19596,-7.8e-5 0.39392,0.005 0.59376,0.01602 4.41524,0.24368 10.30037,1.870149 16.44086,8.83977 -10.74482,-6.363234 -16.82034,-6.851018 -23.57324,-4.630208 -0.56114,-1.987662 2.554,-4.224 6.53862,-4.225582 z m 0.54777,7.563363 c 4.97295,0.01126 8.38976,2.192089 10.56524,4.694799 1.33318,1.53371 0.80198,1.80859 -0.83612,1.25161 -0.77268,-0.26272 -2.25774,-0.94723 -2.25774,-0.94723 -0.90695,1.43703 -8.01602,5.21871 -8.63315,4.05724 -1.10102,-2.07219 7.08059,-4.24267 8.05592,-4.29547 0,0 -4.11749,-2.751444 -8.63203,-2.54661 -1.34696,0.0611 -1.45377,-1.984604 -0.16537,-2.116671 0.65823,-0.06747 1.29253,-0.09905 1.90325,-0.09767 z"
         sodipodi:nodetypes="csscsscccsccssssssccccsssccccssccssccsssscscsss" /><path
         id="path24438"
         style="fill:#000000;fill-opacity:1;stroke-width:0.15"
         d="m -183.8663,45.088204 c -20.47443,0 -55.09216,8.573091 -56.07513,33.769515 15.37697,-18.148042 21.09453,-17.920428 36.58433,-18.022156 9.88345,-0.06491 15.2134,0.0089 19.4908,0.06201 4.27741,-0.05313 9.60684,-0.126922 19.49029,-0.06201 15.4898,0.101728 21.20736,-0.125886 36.58433,18.022156 -0.98297,-25.196424 -35.60019,-33.769515 -56.07462,-33.769515 z"
         sodipodi:nodetypes="scscscs" /><path
         style="fill:#000000;fill-opacity:1;stroke-width:0.15"
         d="m -183.86655,65.387489 h -30.39675 c -0.91644,2.382516 -0.87325,4.16563 0.42095,5.565889 19.6641,0 22.91275,-0.795129 29.9758,-0.795129"
         id="path24440"
         sodipodi:nodetypes="cccc" /><path
         id="path24442"
         style="fill:#000000;fill-opacity:1;stroke-width:0.15"
         d="m -204.45677,167.15052 c 0.0443,-16.21568 20.58996,-26.92194 20.59022,-37.2401 2.5e-4,10.31816 20.54591,21.02442 20.59021,37.2401 0.0242,8.85983 -9.359,16.00729 -20.59021,16.00729 -11.23122,0 -20.61444,-7.14746 -20.59022,-16.00729 z m 44.55387,0.33073 c 2.91058,-14.08998 -19.53329,-24.64194 -19.84375,-39.02604 -0.18944,-8.77693 19.7011,-19.29 19.7776,-34.858856 0.0638,-12.967283 -11.76708,-21.100521 -23.89725,-21.100521 -12.13016,0 -23.96152,8.133238 -23.89776,21.100521 0.0765,15.568856 19.96704,26.081926 19.7776,34.858856 -0.31046,14.3841 -22.75433,24.93606 -19.84375,39.02604 2.09575,10.14545 7.86516,18.94132 23.96366,18.91771 16.09849,0.0236 21.8679,-8.77226 23.96365,-18.91771 z m -44.35543,-73.752604 c 0.7556,-8.865866 6.73362,-17.991667 20.39203,-17.991667 13.65842,0 19.63592,9.125801 20.39152,17.991667 1.0787,12.656834 -20.39177,26.209954 -20.39177,31.683854 0,-5.46217 -21.47048,-19.02702 -20.39178,-31.683854 z"
         sodipodi:nodetypes="scscssscscsscsssscs" /><path
         style="fill:#000000;fill-opacity:1;stroke-width:0.15"
         d="m -183.86044,192.8151 -29.88982,-0.33073 c -1.13856,-0.0126 -1.56173,-5.61853 -0.23151,-5.58932 l 30.12133,0.66146 z"
         id="path24444"
         sodipodi:nodetypes="csscc" /><path
         style="fill:#000000;fill-opacity:1;stroke-width:0.15"
         d="m -208.34496,183.33554 7.01583,-0.0935 c -2.84878,-2.01737 -5.60837,-4.65125 -6.99297,-8.13836 z"
         id="path24446"
         sodipodi:nodetypes="cccc" /><path
         style="fill:#000000;fill-opacity:1;stroke-width:0.15"
         d="m -199.78731,74.180657 h -8.51253 v 8.746394 c 2.28861,-3.891228 4.82703,-6.419121 8.51253,-8.746394 z"
         id="path24448"
         sodipodi:nodetypes="cccc" /></g><g
       id="g24464"
       transform="matrix(-1,0,0,1,-367.7331,0)"
       style="fill:#000000;fill-opacity:1"><path
         id="path24452"
         style="fill:#000000;fill-opacity:1;stroke:none;stroke-width:0.65;stroke-dasharray:none;stroke-opacity:1"
         d="m -183.8668,32.045072 c 49.49146,1.42e-4 89.612238,40.120897 89.612098,89.612098 -1.4e-4,49.49101 -40.120828,89.61145 -89.612098,89.61159 -49.49127,-1.4e-4 -89.61145,-40.12058 -89.61159,-89.61159 -1.4e-4,-49.491201 40.12013,-89.611956 89.61159,-89.612098 z m 0,6.25905 c -46.03473,5.4e-5 -83.35277,37.318585 -83.35254,83.353048 5e-5,46.03427 37.31801,83.35249 83.35254,83.35254 46.03452,-5e-5 83.353,-37.31827 83.35305,-83.35254 2.3e-4,-46.034463 -37.31833,-83.352994 -83.35305,-83.353048 z" /><path
         id="path24454"
         style="fill:#000000;fill-opacity:1;stroke-width:0.15"
         d="m -218.3474,64.690625 c -3.56058,0.484864 -13.68069,7.525758 -17.99166,13.692187 -0.76386,1.092628 -3.03966,3.910336 -3.60237,4.920114 -1.73443,3.112482 -3.40909,8.573636 -3.40909,8.573636 0,0 0.81398,4.405469 0.46302,5.159375 -3.72308,7.997723 -11.28663,24.198563 -10.84792,25.003123 0.22356,0.41 1.64722,0.65246 2.51355,0.66146 3.42758,0.0354 6.98931,-0.12729 9.45885,-0.13229 6.3865,-0.0122 -0.51444,-5.64937 -0.0661,-7.40833 6.60106,1.18798 7.50854,7.20684 2.32544,9.70328 -1.39881,0.67374 -3.70458,0.42587 -6.0296,0.48317 l -0.19844,6.01927 c 7.14511,-0.96741 15.04745,4.15678 15.09675,6.62234 0.021,1.05223 -9.48104,-5.37425 -13.41572,-3.61012 -1.51972,0.68139 -1.30549,4.49573 -0.68884,4.72685 0.77053,0.2888 7.01929,0.0844 6.92619,1.85518 -0.0379,0.72084 -1.23768,0.55198 -3.35432,0.65836 -1.64218,0.0825 -5.25438,6.73251 -2.97656,11.24479 3.00497,5.95274 35.0549,-0.53739 43.19323,-18.38854 -1.76678,9.92369 -12.12327,19.56542 -28.70729,22.9526 5.85887,2.37286 11.73453,17.00999 14.08906,25.66459 l 3.83646,0.0661 c 0,0 -1.53235,-21.32597 3.50573,-29.96406 2.35499,-4.03782 7.24389,-9.14779 11.24479,-13.75833 8.27309,-9.53375 5.67473,-13.83317 -2.12494,-22.0183 -5.87445,-6.16479 -13.976,-16.32816 -12.22871,-28.781703 -2.81286,-0.880503 -11.90064,-2.359157 -13.69218,-5.622396 4.34513,-0.263274 10.28194,2.191012 13.49375,2.182812 V 74.546354 c -5.46368,0.08877 -15.96804,7.104724 -18.3224,6.482292 -0.55586,-0.146956 -0.36489,-1.37199 -0.13229,-1.719792 0.51502,-0.770086 8.65766,-4.103459 13.62604,-5.754687 -2.63191,-2.107749 -2.87113,-4.658544 -1.98438,-8.863542 z m -14.75103,25.610323 c 0.19596,-7.8e-5 0.39392,0.005 0.59376,0.01602 4.41524,0.24368 10.30037,1.870149 16.44086,8.83977 -10.74482,-6.363234 -16.82034,-6.851018 -23.57324,-4.630208 -0.56114,-1.987662 2.554,-4.224 6.53862,-4.225582 z m 0.54777,7.563363 c 4.97295,0.01126 8.38976,2.192089 10.56524,4.694799 1.33318,1.53371 0.80198,1.80859 -0.83612,1.25161 -0.77268,-0.26272 -2.25774,-0.94723 -2.25774,-0.94723 -0.90695,1.43703 -8.01602,5.21871 -8.63315,4.05724 -1.10102,-2.07219 7.08059,-4.24267 8.05592,-4.29547 0,0 -4.11749,-2.751444 -8.63203,-2.54661 -1.34696,0.0611 -1.45377,-1.984604 -0.16537,-2.116671 0.65823,-0.06747 1.29253,-0.09905 1.90325,-0.09767 z"
         sodipodi:nodetypes="csscsscccsccssssssccccsssccccssccssccsssscscsss" /><path
         style="fill:#000000;fill-opacity:1;stroke-width:0.15"
         d="m -183.86655,65.387489 h -30.39675 c -0.91644,2.382516 -0.87325,4.16563 0.42095,5.565889 19.6641,0 22.91275,-0.795129 29.9758,-0.795129"
         id="path24456"
         sodipodi:nodetypes="cccc" /><path
         style="fill:#000000;fill-opacity:1;stroke-width:0.15"
         d="m -183.86044,192.8151 -29.88982,-0.33073 c -1.13856,-0.0126 -1.56173,-5.61853 -0.23151,-5.58932 l 30.12133,0.66146 z"
         id="path24458"
         sodipodi:nodetypes="csscc" /><path
         style="fill:#000000;fill-opacity:1;stroke-width:0.15"
         d="m -208.34496,183.33554 7.01583,-0.0935 c -2.84878,-2.01737 -5.60837,-4.65125 -6.99297,-8.13836 z"
         id="path24460"
         sodipodi:nodetypes="cccc" /><path
         style="fill:#000000;fill-opacity:1;stroke-width:0.15"
         d="m -199.78731,74.180657 h -8.51253 v 8.746394 c 2.28861,-3.891228 4.82703,-6.419121 8.51253,-8.746394 z"
         id="path24462"
         sodipodi:nodetypes="cccc" /></g><path
       style="fill:#000000;fill-opacity:1;stroke:none;stroke-width:0.649999;stroke-dasharray:none;stroke-opacity:1"
       d="m -183.86655,119.97061 c 3.63166,-6.94347 13.93582,-13.5818 16.46897,-24.181213 -8.54067,1.612925 -11.10453,4.272643 -16.46897,3.227279 -5.68889,-1.153713 -9.96531,-3.437408 -17.06668,-3.461139 1.5911,9.048983 13.10692,17.409963 17.06668,24.415073 z"
       id="path24466"
       sodipodi:nodetypes="ccccc" /><path
       style="fill:#000000;fill-opacity:1;stroke:none;stroke-width:0.649999;stroke-dasharray:none;stroke-opacity:1"
       d="m -183.15981,137.18277 c 0.0299,-0.69135 -2.36119,-0.22385 -2.38538,0.46772 -0.21831,6.24196 -0.55272,15.19017 -0.51449,22.45063 0.0239,4.53296 -11.62275,9.36139 -14.96709,10.24311 1.84329,6.9472 10.50085,10.57018 17.16633,10.28988 6.7178,-0.2825 14.99229,-3.8518 16.36931,-11.78659 -7.43392,-0.81845 -15.15806,-4.78107 -15.2945,-9.30766 -0.15616,-5.18081 -0.6132,-16.82188 -0.37418,-22.35709 z"
       id="path24468"
       sodipodi:nodetypes="ssscscss" /><path
       style="fill:#000000;fill-opacity:1;stroke:none;stroke-width:0.649999;stroke-dasharray:none;stroke-opacity:1"
       d="m -192.23361,152.52403 -2.80633,-0.0468 c -3.68343,2.97297 -6.80615,8.03094 -5.7062,11.9269 l 2.38538,0.60804 c 0.0165,-5.04905 2.11965,-9.18516 6.12715,-12.48814 z"
       id="path24470"
       sodipodi:nodetypes="ccccc" /><path
       style="fill:#000000;fill-opacity:1;stroke:none;stroke-width:0.649999;stroke-dasharray:none;stroke-opacity:1"
       d="m -197.81838,89.89602 c -0.0838,1.758622 -1.41772,1.222168 -2.39991,1.03172 -0.87841,-0.170324 -0.76896,-0.795966 -0.71494,-1.189949 0.42284,-3.083901 3.49623,-8.368886 7.56788,-8.731343 2.21062,-0.196789 1.95545,0.358308 -0.44234,2.011395 -0.80302,0.553618 -3.87169,3.959578 -4.01069,6.878177 z"
       id="path24472"
       sodipodi:nodetypes="ssssss" /></g></svg>
